<mxfile host="drawio-plugin" modified="2023-01-02T05:14:53.534Z" agent="5.0 (Macintosh; Intel Mac OS X 10_15_7) AppleWebKit/537.36 (KHTML, like Gecko) Chrome/104.0.5112.102 Safari/537.36" etag="9_paf3UcbjYtE8M6f75A" version="20.5.3" type="embed"><diagram id="LXXolyaRc9GEFiz_JLzD" name="Page-1"><mxGraphModel dx="1887" dy="626" grid="1" gridSize="10" guides="1" tooltips="1" connect="1" arrows="1" fold="1" page="1" pageScale="1" pageWidth="850" pageHeight="1100" math="1" shadow="0"><root><mxCell id="0"/><mxCell id="1" parent="0"/><mxCell id="5" style="edgeStyle=orthogonalEdgeStyle;rounded=0;orthogonalLoop=1;jettySize=auto;html=1;" edge="1" parent="1" source="3" target="4"><mxGeometry relative="1" as="geometry"/></mxCell><mxCell id="3" value="main" style="rounded=1;whiteSpace=wrap;html=1;" vertex="1" parent="1"><mxGeometry x="387.5" y="3" width="95" height="40" as="geometry"/></mxCell><mxCell id="12" style="edgeStyle=orthogonalEdgeStyle;rounded=0;orthogonalLoop=1;jettySize=auto;html=1;" edge="1" parent="1" source="4" target="7"><mxGeometry relative="1" as="geometry"/></mxCell><mxCell id="17" style="edgeStyle=orthogonalEdgeStyle;rounded=0;orthogonalLoop=1;jettySize=auto;html=1;entryX=0.5;entryY=0;entryDx=0;entryDy=0;" edge="1" parent="1" source="4" target="10"><mxGeometry relative="1" as="geometry"/></mxCell><mxCell id="18" style="edgeStyle=orthogonalEdgeStyle;rounded=0;orthogonalLoop=1;jettySize=auto;html=1;entryX=0.363;entryY=0;entryDx=0;entryDy=0;entryPerimeter=0;" edge="1" parent="1" source="4" target="6"><mxGeometry relative="1" as="geometry"/></mxCell><mxCell id="4" value="choose_mode" style="rounded=0;whiteSpace=wrap;html=1;" vertex="1" parent="1"><mxGeometry x="385" y="93" width="100" height="40" as="geometry"/></mxCell><mxCell id="28" style="edgeStyle=orthogonalEdgeStyle;rounded=0;orthogonalLoop=1;jettySize=auto;html=1;entryX=0.5;entryY=0;entryDx=0;entryDy=0;" edge="1" parent="1" source="6" target="27"><mxGeometry relative="1" as="geometry"/></mxCell><mxCell id="6" value="auto" style="rounded=0;whiteSpace=wrap;html=1;" vertex="1" parent="1"><mxGeometry x="-45" y="163" width="80" height="40" as="geometry"/></mxCell><mxCell id="47" style="edgeStyle=orthogonalEdgeStyle;rounded=0;orthogonalLoop=1;jettySize=auto;html=1;fontSize=12;" edge="1" parent="1" source="7" target="44"><mxGeometry relative="1" as="geometry"/></mxCell><mxCell id="7" value="manual" style="rounded=0;whiteSpace=wrap;html=1;" vertex="1" parent="1"><mxGeometry x="395" y="163" width="80" height="40" as="geometry"/></mxCell><mxCell id="10" value="semi" style="rounded=0;whiteSpace=wrap;html=1;" vertex="1" parent="1"><mxGeometry x="840" y="163" width="80" height="40" as="geometry"/></mxCell><mxCell id="31" style="edgeStyle=orthogonalEdgeStyle;rounded=0;orthogonalLoop=1;jettySize=auto;html=1;" edge="1" parent="1" source="27" target="30"><mxGeometry relative="1" as="geometry"/></mxCell><mxCell id="27" value="&lt;b&gt;ran_ppl&lt;/b&gt;&lt;br&gt;&lt;i&gt;Creates a set of random people&lt;/i&gt;" style="rounded=1;whiteSpace=wrap;html=1;absoluteArcSize=1;arcSize=14;strokeWidth=2;shadow=0;glass=0;sketch=0;" vertex="1" parent="1"><mxGeometry x="-45" y="253" width="80" height="70" as="geometry"/></mxCell><mxCell id="30" value="&lt;b&gt;assign_birthdays&lt;/b&gt;&lt;br&gt;&lt;i&gt;Assigns random birthdays to set of people, returns dict&lt;/i&gt;" style="rounded=1;whiteSpace=wrap;html=1;absoluteArcSize=1;arcSize=14;strokeWidth=2;shadow=0;glass=0;sketch=0;" vertex="1" parent="1"><mxGeometry x="-60" y="363" width="110" height="70" as="geometry"/></mxCell><mxCell id="34" style="edgeStyle=orthogonalEdgeStyle;rounded=0;orthogonalLoop=1;jettySize=auto;html=1;" edge="1" parent="1" source="32" target="33"><mxGeometry relative="1" as="geometry"/></mxCell><mxCell id="32" value="&lt;b&gt;bd_ppl_print&lt;/b&gt;&lt;br&gt;&lt;i&gt;prints sorted names and birthdays&amp;nbsp;&lt;/i&gt;" style="rounded=0;whiteSpace=wrap;html=1;shadow=0;glass=0;sketch=0;" vertex="1" parent="1"><mxGeometry x="357.5" y="830" width="145" height="60" as="geometry"/></mxCell><mxCell id="38" style="edgeStyle=orthogonalEdgeStyle;rounded=0;orthogonalLoop=1;jettySize=auto;html=1;" edge="1" parent="1" source="33" target="37"><mxGeometry relative="1" as="geometry"/></mxCell><mxCell id="33" value="&lt;b&gt;create_pairs&lt;/b&gt;&lt;br&gt;&lt;i&gt;creates pairs of people in the dict&amp;nbsp;&lt;/i&gt;" style="rounded=0;whiteSpace=wrap;html=1;shadow=0;glass=0;sketch=0;" vertex="1" parent="1"><mxGeometry x="357.5" y="920" width="145" height="60" as="geometry"/></mxCell><mxCell id="40" style="edgeStyle=orthogonalEdgeStyle;rounded=0;orthogonalLoop=1;jettySize=auto;html=1;" edge="1" parent="1" source="37" target="39"><mxGeometry relative="1" as="geometry"/></mxCell><mxCell id="37" value="&lt;b&gt;match_bds&lt;/b&gt;&lt;br&gt;&lt;i&gt;pairs from the list of pairs and prints matching birthdays.&lt;/i&gt;" style="rounded=0;whiteSpace=wrap;html=1;shadow=0;glass=0;sketch=0;" vertex="1" parent="1"><mxGeometry x="357.5" y="1010" width="145" height="60" as="geometry"/></mxCell><mxCell id="43" style="edgeStyle=orthogonalEdgeStyle;rounded=0;orthogonalLoop=1;jettySize=auto;html=1;fontSize=14;" edge="1" parent="1" source="39" target="42"><mxGeometry relative="1" as="geometry"/></mxCell><mxCell id="39" value="&lt;b&gt;probability&lt;br&gt;&lt;/b&gt;&lt;i&gt;&amp;nbsp;calculates the probability of finding 2 people with the same birthday.&lt;/i&gt;" style="rounded=0;whiteSpace=wrap;html=1;shadow=0;glass=0;sketch=0;" vertex="1" parent="1"><mxGeometry x="357.5" y="1100" width="145" height="60" as="geometry"/></mxCell><mxCell id="41" value="&lt;p style=&quot;margin: 0px; font-variant-numeric: normal; font-variant-east-asian: normal; font-stretch: normal; line-height: normal; font-family: &amp;quot;Helvetica Neue&amp;quot;;&quot; class=&quot;p1&quot;&gt;&lt;b style=&quot;&quot;&gt;&lt;font style=&quot;font-size: 14px;&quot;&gt;Probability Calculation:&lt;/font&gt;&lt;/b&gt;&lt;/p&gt;&lt;p style=&quot;margin: 0px; font-variant-numeric: normal; font-variant-east-asian: normal; font-stretch: normal; font-size: 13px; line-height: normal; font-family: &amp;quot;Helvetica Neue&amp;quot;; text-align: start;&quot; class=&quot;p1&quot;&gt;&lt;span style=&quot;background-color: initial;&quot;&gt;$$V_{nr}=\dfrac{n!}{\left(n-k \right)!}$$&lt;/span&gt;&lt;/p&gt;&lt;p style=&quot;margin: 0px; font-variant-numeric: normal; font-variant-east-asian: normal; font-stretch: normal; font-size: 13px; line-height: normal; font-family: &amp;quot;Helvetica Neue&amp;quot;; text-align: start;&quot; class=&quot;p1&quot;&gt;$$V_{t}=n^{k}$$&lt;/p&gt;&lt;p style=&quot;margin: 0px; font-variant-numeric: normal; font-variant-east-asian: normal; font-stretch: normal; font-size: 13px; line-height: normal; font-family: &amp;quot;Helvetica Neue&amp;quot;; text-align: start;&quot; class=&quot;p1&quot;&gt;$$P\left( A\right) = \dfrac{V_{nt}}{V_{t}}$$&lt;/p&gt;&lt;p style=&quot;margin: 0px; font-variant-numeric: normal; font-variant-east-asian: normal; font-stretch: normal; font-size: 13px; line-height: normal; font-family: &amp;quot;Helvetica Neue&amp;quot;; text-align: start;&quot; class=&quot;p1&quot;&gt;$$ P\left( B\right) =1-P\left( A\right)$$&lt;/p&gt;" style="whiteSpace=wrap;html=1;shape=mxgraph.basic.roundRectCallout;dx=30;dy=15;size=5;boundedLbl=1;rounded=1;shadow=0;glass=0;sketch=0;" vertex="1" parent="1"><mxGeometry x="42.5" y="950" width="220" height="220" as="geometry"/></mxCell><mxCell id="42" value="&lt;div style=&quot;font-size: 12px;&quot;&gt;&lt;b style=&quot;background-color: initial;&quot;&gt;&lt;font style=&quot;font-size: 12px;&quot;&gt;successful pairs&lt;/font&gt;&lt;/b&gt;&lt;/div&gt;&lt;font style=&quot;font-size: 12px;&quot;&gt;&lt;i style=&quot;&quot;&gt;prints how many shared bds were found&lt;/i&gt;&lt;/font&gt;" style="rounded=0;whiteSpace=wrap;html=1;shadow=0;glass=0;sketch=0;fontSize=14;" vertex="1" parent="1"><mxGeometry x="357.5" y="1180" width="145" height="60" as="geometry"/></mxCell><mxCell id="49" style="edgeStyle=orthogonalEdgeStyle;rounded=0;orthogonalLoop=1;jettySize=auto;html=1;fontSize=12;" edge="1" parent="1" source="44" target="48"><mxGeometry relative="1" as="geometry"/></mxCell><mxCell id="54" style="edgeStyle=orthogonalEdgeStyle;rounded=0;orthogonalLoop=1;jettySize=auto;html=1;entryX=0.5;entryY=0;entryDx=0;entryDy=0;fontSize=12;" edge="1" parent="1" source="44" target="53"><mxGeometry relative="1" as="geometry"/></mxCell><mxCell id="44" value="&lt;b&gt;use_csv&lt;/b&gt;&lt;br&gt;&lt;i&gt;checks if user wants to enter csv file of names and bds&lt;/i&gt;" style="rounded=1;whiteSpace=wrap;html=1;absoluteArcSize=1;arcSize=14;strokeWidth=2;shadow=0;glass=0;sketch=0;" vertex="1" parent="1"><mxGeometry x="383.75" y="253" width="102.5" height="70" as="geometry"/></mxCell><mxCell id="48" value="&lt;b&gt;bdd_csv&lt;br&gt;&lt;/b&gt;&lt;i&gt;extracts names and bds from csv, returns dict&lt;/i&gt;" style="rounded=1;whiteSpace=wrap;html=1;absoluteArcSize=1;arcSize=14;strokeWidth=2;shadow=0;glass=0;sketch=0;fontSize=12;" vertex="1" parent="1"><mxGeometry x="250" y="333" width="102.5" height="70" as="geometry"/></mxCell><mxCell id="50" value="1" style="verticalLabelPosition=bottom;verticalAlign=top;html=1;shape=mxgraph.basic.tick;rounded=1;shadow=0;glass=0;sketch=0;fontSize=12;" vertex="1" parent="1"><mxGeometry x="260" y="273" width="25" height="30" as="geometry"/></mxCell><mxCell id="60" style="edgeStyle=orthogonalEdgeStyle;rounded=0;orthogonalLoop=1;jettySize=auto;html=1;fontSize=12;" edge="1" parent="1" source="53" target="59"><mxGeometry relative="1" as="geometry"/></mxCell><mxCell id="53" value="&lt;b&gt;bdd_csv&lt;br&gt;&lt;/b&gt;&lt;i&gt;checks if user wants to enter csv file of names and bds&lt;/i&gt;" style="rounded=1;whiteSpace=wrap;html=1;absoluteArcSize=1;arcSize=14;strokeWidth=2;shadow=0;glass=0;sketch=0;fontSize=12;" vertex="1" parent="1"><mxGeometry x="520" y="333" width="180" height="67" as="geometry"/></mxCell><mxCell id="55" value="0" style="verticalLabelPosition=bottom;verticalAlign=top;html=1;shape=mxgraph.basic.x;rounded=1;shadow=0;glass=0;sketch=0;fontSize=12;" vertex="1" parent="1"><mxGeometry x="626" y="279" width="24" height="24" as="geometry"/></mxCell><mxCell id="62" style="edgeStyle=orthogonalEdgeStyle;rounded=0;orthogonalLoop=1;jettySize=auto;html=1;fontSize=12;" edge="1" parent="1" source="59" target="61"><mxGeometry relative="1" as="geometry"/></mxCell><mxCell id="59" value="&lt;b&gt;num_ppl&lt;br&gt;&lt;/b&gt;&lt;i&gt;lets the user choose a number of ppl to check&lt;/i&gt;" style="rounded=1;whiteSpace=wrap;html=1;absoluteArcSize=1;arcSize=14;strokeWidth=2;shadow=0;glass=0;sketch=0;fontSize=12;" vertex="1" parent="1"><mxGeometry x="520" y="433" width="180" height="57" as="geometry"/></mxCell><mxCell id="61" value="&lt;b&gt;choose_people&lt;br&gt;&lt;/b&gt;&lt;i&gt;for n people (num_ppl) - runs choose_name and choose_bdd --&amp;gt; user enters manually name and bd&lt;br&gt;&lt;/i&gt;" style="rounded=1;whiteSpace=wrap;html=1;absoluteArcSize=1;arcSize=14;strokeWidth=2;shadow=0;glass=0;sketch=0;fontSize=12;" vertex="1" parent="1"><mxGeometry x="520" y="530" width="180" height="70" as="geometry"/></mxCell></root></mxGraphModel></diagram></mxfile>